<svg xmlns="http://www.w3.org/2000/svg" xmlns:xlink="http://www.w3.org/1999/xlink" viewBox="0 0 394.83 134.3"><defs><style>.cls-1{fill:url(#linear-gradient);}.cls-2{fill:#fff;}.cls-3{fill:url(#linear-gradient-2);}</style><linearGradient id="linear-gradient" x1="99.55" y1="65.96" x2="69.04" y2="126.98" gradientUnits="userSpaceOnUse"><stop offset="0" stop-color="#80bce7"/><stop offset="0.85" stop-color="#6593b5"/></linearGradient><linearGradient id="linear-gradient-2" x1="29.93" y1="26.84" x2="62.99" y2="110.99" gradientUnits="userSpaceOnUse"><stop offset="0" stop-color="#80bce7"/><stop offset="1" stop-color="#77add4"/></linearGradient></defs><title>Vimba-light</title><g id="Layer_2" data-name="Layer 2"><g id="Layer_1-2" data-name="Layer 1"><path class="cls-1" d="M58.07,122.61s2.8,9.73,14.45,9.73c7.77,0,19.07,1.12,19.07,1.12L145.35,0S103.46,2.46,92.86,27.9c-7.29,17.5-20.55,65.29-31.25,86.05C56.9,123.07,58.07,122.61,58.07,122.61Z"/><path class="cls-2" d="M141.73,38.84h16.85v17H141.73ZM142,68.12h15.91v65.12H142Z"/><path class="cls-2" d="M171.68,71.33A96.51,96.51,0,0,1,200,66.91c7.75,0,12.7,1.2,18.45,4.55a54.22,54.22,0,0,1,21.93-4.55c8.83,0,15.64,2.27,19.79,6.55,3.74,4,5.08,8.83,5.08,17.65v42.12H249.37v-41c0-8.83-3.34-12.43-11.63-12.43A30.34,30.34,0,0,0,226.24,82c.8,2.54,1.07,4.68,1.07,9.36v41.85H211.4V92.32c0-9-3.48-12.57-12.43-12.57a36,36,0,0,0-11.37,1.87v51.61H171.68Z"/><path class="cls-2" d="M278.51,33h15.91v36.5a40.94,40.94,0,0,1,14.44-2.67c18.45,0,30.08,12.43,30.08,32.22,0,22.6-14.57,35-41.18,35a100.06,100.06,0,0,1-19.25-2Zm15.91,87.85a52.67,52.67,0,0,0,6.15.4c14.57,0,22.2-7.22,22.2-21.39,0-12.84-6.69-20.19-18.45-20.19a23.75,23.75,0,0,0-9.89,2Z"/><path class="cls-2" d="M349.11,73.47c8.69-4.68,16.31-6.68,25.14-6.68,9.49,0,15.64,2.81,18.45,8.29,1.61,3.08,2.14,7,2.14,15.51V131.9a199.84,199.84,0,0,1-27.54,2.41c-15.24,0-22.06-5.62-22.06-18.45,0-8.83,3.74-15.11,11.23-18.72,5.75-2.81,11.09-4,22.33-5.21l1.34-.13V89.38c0-7.22-2.27-9.76-9.36-9.76S357,82,349.11,87.1Zm31.29,30.22c-15.38,1.2-20.72,4.15-20.72,11.23,0,5.08,2.81,7.35,8.69,7.35a70.2,70.2,0,0,0,12-1.2Z"/><path class="cls-3" d="M91.56,133.47H49.82L0,.46s41.89,2.46,52.49,27.9c7.29,17.5,21.46,62.45,31.25,86.05C87.67,123.88,91.56,133.47,91.56,133.47Z"/></g></g></svg>